<svg xmlns="http://www.w3.org/2000/svg" xmlns:xlink="http://www.w3.org/1999/xlink" viewBox="0 0 1024 1024"><defs><style>.cls-1{fill:url(#Dégradé_sans_nom_30);}.cls-2{fill:url(#Dégradé_sans_nom_30-2);}.cls-3{fill:#aaa;}.cls-10,.cls-11,.cls-12,.cls-13,.cls-14,.cls-15,.cls-16,.cls-17,.cls-18,.cls-19,.cls-20,.cls-21,.cls-22,.cls-23,.cls-24,.cls-25,.cls-26,.cls-27,.cls-4,.cls-5,.cls-6,.cls-7,.cls-8,.cls-9{fill:#fff;}.cls-29,.cls-41,.cls-5{opacity:0;}.cls-6{opacity:0.07;}.cls-7{opacity:0.13;}.cls-8{opacity:0.2;}.cls-9{opacity:0.26;}.cls-10{opacity:0.33;}.cls-11{opacity:0.39;}.cls-12{opacity:0.46;}.cls-13{opacity:0.52;}.cls-14{opacity:0.59;}.cls-15{opacity:0.65;}.cls-16{opacity:0.72;}.cls-17{opacity:0.02;}.cls-18{opacity:0.03;}.cls-19{opacity:0.05;}.cls-20{opacity:0.06;}.cls-21{opacity:0.08;}.cls-22{opacity:0.09;}.cls-23{opacity:0.11;}.cls-24{opacity:0.12;}.cls-25{opacity:0.14;}.cls-26{opacity:0.15;}.cls-27{opacity:0.17;}.cls-28,.cls-29,.cls-30,.cls-31,.cls-32,.cls-33,.cls-34,.cls-35,.cls-36,.cls-37,.cls-38,.cls-39,.cls-40{fill:#00b90a;}.cls-30,.cls-42{opacity:0.03;}.cls-31,.cls-43{opacity:0.06;}.cls-32,.cls-44{opacity:0.08;}.cls-33,.cls-45{opacity:0.11;}.cls-34,.cls-46{opacity:0.14;}.cls-35,.cls-47{opacity:0.17;}.cls-36,.cls-48{opacity:0.2;}.cls-37,.cls-49{opacity:0.23;}.cls-38,.cls-50{opacity:0.25;}.cls-39,.cls-51{opacity:0.28;}.cls-40,.cls-52{opacity:0.31;}.cls-41,.cls-42,.cls-43,.cls-44,.cls-45,.cls-46,.cls-47,.cls-48,.cls-49,.cls-50,.cls-51,.cls-52,.cls-53{fill:#b90034;}.cls-54{fill:url(#Dégradé_sans_nom_30-3);}.cls-55{fill:url(#Dégradé_sans_nom_30-4);}</style><linearGradient id="Dégradé_sans_nom_30" x1="145.33" y1="724.24" x2="878.67" y2="724.24" gradientUnits="userSpaceOnUse"><stop offset="0" stop-color="#0f2659"/><stop offset="1" stop-color="#253f9e"/></linearGradient><linearGradient id="Dégradé_sans_nom_30-2" x1="822.3" y1="649.03" x2="121.51" y2="390.85" xlink:href="#Dégradé_sans_nom_30"/><linearGradient id="Dégradé_sans_nom_30-3" x1="145.33" y1="489.29" x2="878.67" y2="489.29" xlink:href="#Dégradé_sans_nom_30"/><linearGradient id="Dégradé_sans_nom_30-4" x1="822.3" y1="414.08" x2="121.51" y2="155.9" xlink:href="#Dégradé_sans_nom_30"/></defs><g id="Calque_6" data-name="Calque 6"><path class="cls-1" d="M878.67,724.24V534.71h-312l-46.56-26.88a16.31,16.31,0,0,0-16.3,0l-46.56,26.88h-312V724.24a16.16,16.16,0,0,0,8.15,14.12L503.85,940.64a16.31,16.31,0,0,0,16.3,0L870.52,738.36A16.16,16.16,0,0,0,878.67,724.24Z"/><path class="cls-2" d="M153.48,520.6,503.85,318.31a16.31,16.31,0,0,1,16.3,0L870.52,520.6a16.3,16.3,0,0,1,0,28.23L520.15,751.12a16.31,16.31,0,0,1-16.3,0L153.48,548.83A16.3,16.3,0,0,1,153.48,520.6Z"/><path class="cls-3" d="M833.72,631l-42,25.11a16.18,16.18,0,0,0-8.09,14v47.37a16.19,16.19,0,0,0,24.28,14l42-25.12a16.18,16.18,0,0,0,8.1-14V645A16.19,16.19,0,0,0,833.72,631Z"/><path class="cls-4" d="M829.22,648.53l-27.34,16.35a10.53,10.53,0,0,0-5.27,9.12v30.84A10.55,10.55,0,0,0,812.42,714l27.33-16.35a10.55,10.55,0,0,0,5.27-9.13V657.65A10.53,10.53,0,0,0,829.22,648.53Z"/><path class="cls-5" d="M859.91,670.11l-27.34,16.35a10.52,10.52,0,0,0-5.26,9.12v30.84a10.54,10.54,0,0,0,15.8,9.13l27.34-16.35a10.55,10.55,0,0,0,5.26-9.13V679.23A10.53,10.53,0,0,0,859.91,670.11Z"/><path class="cls-6" d="M857.12,668.15,829.78,684.5a10.52,10.52,0,0,0-5.26,9.12v30.84a10.53,10.53,0,0,0,15.8,9.12l27.34-16.35a10.52,10.52,0,0,0,5.26-9.12V677.27A10.53,10.53,0,0,0,857.12,668.15Z"/><path class="cls-7" d="M854.33,666.18,827,682.53a10.55,10.55,0,0,0-5.26,9.13V722.5a10.53,10.53,0,0,0,15.8,9.12l27.34-16.35a10.52,10.52,0,0,0,5.26-9.12V675.31A10.54,10.54,0,0,0,854.33,666.18Z"/><path class="cls-8" d="M851.54,664.22,824.2,680.57a10.53,10.53,0,0,0-5.26,9.13v30.84a10.53,10.53,0,0,0,15.8,9.12l27.34-16.35a10.53,10.53,0,0,0,5.26-9.13V673.35A10.54,10.54,0,0,0,851.54,664.22Z"/><path class="cls-9" d="M848.75,662.26l-27.34,16.35a10.53,10.53,0,0,0-5.26,9.13v30.83A10.53,10.53,0,0,0,832,727.7l27.34-16.35a10.53,10.53,0,0,0,5.26-9.13V671.39A10.53,10.53,0,0,0,848.75,662.26Z"/><path class="cls-10" d="M846,660.3l-27.34,16.35a10.52,10.52,0,0,0-5.26,9.12v30.84a10.54,10.54,0,0,0,15.8,9.13l27.34-16.35a10.54,10.54,0,0,0,5.26-9.13V669.42A10.53,10.53,0,0,0,846,660.3Z"/><path class="cls-11" d="M843.17,658.34l-27.34,16.35a10.52,10.52,0,0,0-5.26,9.12v30.84a10.54,10.54,0,0,0,15.8,9.13l27.34-16.35A10.55,10.55,0,0,0,859,698.3V667.46A10.53,10.53,0,0,0,843.17,658.34Z"/><path class="cls-12" d="M840.38,656.37,813,672.73a10.53,10.53,0,0,0-5.27,9.12v30.84a10.54,10.54,0,0,0,15.81,9.12l27.33-16.35a10.51,10.51,0,0,0,5.27-9.12V665.5A10.54,10.54,0,0,0,840.38,656.37Z"/><path class="cls-13" d="M837.59,654.41l-27.34,16.35a10.55,10.55,0,0,0-5.27,9.13v30.84a10.54,10.54,0,0,0,15.81,9.12l27.33-16.35a10.53,10.53,0,0,0,5.27-9.12V663.54A10.54,10.54,0,0,0,837.59,654.41Z"/><path class="cls-14" d="M834.8,652.45,807.46,668.8a10.54,10.54,0,0,0-5.27,9.13v30.83A10.54,10.54,0,0,0,818,717.89l27.33-16.35a10.54,10.54,0,0,0,5.27-9.13V661.58A10.53,10.53,0,0,0,834.8,652.45Z"/><path class="cls-15" d="M832,650.49l-27.34,16.35A10.54,10.54,0,0,0,799.4,676V706.8a10.55,10.55,0,0,0,15.81,9.13l27.33-16.35a10.54,10.54,0,0,0,5.27-9.13V659.61A10.53,10.53,0,0,0,832,650.49Z"/><path class="cls-16" d="M829.22,648.53l-27.34,16.35a10.53,10.53,0,0,0-5.27,9.12v30.84A10.55,10.55,0,0,0,812.42,714l27.33-16.35a10.55,10.55,0,0,0,5.27-9.13V657.65A10.53,10.53,0,0,0,829.22,648.53Z"/><path class="cls-4" d="M393.89,750.86l78.47,45.3a4.87,4.87,0,0,1,2.43,4.21V814.6a4.86,4.86,0,0,1-7.29,4.21L389,773.51a4.85,4.85,0,0,1-2.43-4.21V755.07A4.86,4.86,0,0,1,393.89,750.86Z"/><path class="cls-4" d="M393.89,801.78l78.47,45.3a4.87,4.87,0,0,1,2.43,4.21v14.23a4.86,4.86,0,0,1-7.29,4.21L389,824.43a4.86,4.86,0,0,1-2.43-4.21V806A4.85,4.85,0,0,1,393.89,801.78Z"/><path class="cls-5" d="M385.05,810.69,463.52,856a4.87,4.87,0,0,1,2.43,4.21v14.23a4.87,4.87,0,0,1-7.3,4.21l-78.46-45.3a4.87,4.87,0,0,1-2.44-4.22V814.9A4.87,4.87,0,0,1,385.05,810.69Z"/><path class="cls-17" d="M385.85,809.88l78.47,45.31a4.85,4.85,0,0,1,2.43,4.21v14.23a4.86,4.86,0,0,1-7.29,4.21L381,832.53a4.86,4.86,0,0,1-2.43-4.21V814.09A4.86,4.86,0,0,1,385.85,809.88Z"/><path class="cls-18" d="M386.66,809.07l78.46,45.31a4.84,4.84,0,0,1,2.44,4.21v14.23a4.87,4.87,0,0,1-7.3,4.21l-78.47-45.31a4.86,4.86,0,0,1-2.43-4.21V813.28A4.87,4.87,0,0,1,386.66,809.07Z"/><path class="cls-19" d="M387.46,808.26l78.47,45.31a4.86,4.86,0,0,1,2.43,4.21V872a4.86,4.86,0,0,1-7.29,4.21L382.6,830.91a4.85,4.85,0,0,1-2.43-4.21V812.47A4.86,4.86,0,0,1,387.46,808.26Z"/><path class="cls-20" d="M388.26,807.45l78.47,45.3a4.86,4.86,0,0,1,2.43,4.22V871.2a4.86,4.86,0,0,1-7.29,4.21L383.4,830.1a4.87,4.87,0,0,1-2.43-4.21V811.66A4.86,4.86,0,0,1,388.26,807.45Z"/><path class="cls-21" d="M389.07,806.64l78.47,45.3a4.88,4.88,0,0,1,2.43,4.21v14.23a4.87,4.87,0,0,1-7.3,4.22l-78.46-45.31a4.86,4.86,0,0,1-2.44-4.21V810.85A4.87,4.87,0,0,1,389.07,806.64Z"/><path class="cls-22" d="M389.87,805.83l78.47,45.3a4.88,4.88,0,0,1,2.43,4.21v14.23a4.85,4.85,0,0,1-7.29,4.21L385,828.48a4.85,4.85,0,0,1-2.43-4.21V810A4.86,4.86,0,0,1,389.87,805.83Z"/><path class="cls-23" d="M390.68,805l78.46,45.3a4.86,4.86,0,0,1,2.43,4.21v14.23a4.85,4.85,0,0,1-7.29,4.21l-78.47-45.3a4.87,4.87,0,0,1-2.43-4.21V809.23A4.87,4.87,0,0,1,390.68,805Z"/><path class="cls-24" d="M391.48,804.21,470,849.51a4.88,4.88,0,0,1,2.43,4.21V868a4.85,4.85,0,0,1-7.29,4.21l-78.47-45.3a4.85,4.85,0,0,1-2.43-4.21V808.42A4.86,4.86,0,0,1,391.48,804.21Z"/><path class="cls-25" d="M392.28,803.4l78.47,45.3a4.85,4.85,0,0,1,2.43,4.21v14.23a4.86,4.86,0,0,1-7.29,4.21l-78.47-45.3a4.87,4.87,0,0,1-2.43-4.21V807.61A4.86,4.86,0,0,1,392.28,803.4Z"/><path class="cls-26" d="M393.09,802.59l78.47,45.3A4.87,4.87,0,0,1,474,852.1v14.23a4.87,4.87,0,0,1-7.3,4.21l-78.47-45.3a4.88,4.88,0,0,1-2.43-4.21V806.8A4.86,4.86,0,0,1,393.09,802.59Z"/><path class="cls-27" d="M393.89,801.78l78.47,45.3a4.87,4.87,0,0,1,2.43,4.21v14.23a4.86,4.86,0,0,1-7.29,4.21L389,824.43a4.86,4.86,0,0,1-2.43-4.21V806A4.85,4.85,0,0,1,393.89,801.78Z"/><path class="cls-5" d="M385.05,759.78l78.47,45.3a4.87,4.87,0,0,1,2.43,4.21v14.23a4.87,4.87,0,0,1-7.3,4.21l-78.46-45.3a4.87,4.87,0,0,1-2.44-4.21V764A4.86,4.86,0,0,1,385.05,759.78Z"/><path class="cls-17" d="M385.85,759l78.47,45.31a4.85,4.85,0,0,1,2.43,4.21v14.23a4.86,4.86,0,0,1-7.29,4.21L381,781.62a4.88,4.88,0,0,1-2.43-4.21V763.18A4.86,4.86,0,0,1,385.85,759Z"/><path class="cls-18" d="M386.66,758.15l78.46,45.31a4.86,4.86,0,0,1,2.44,4.21V821.9a4.87,4.87,0,0,1-7.3,4.21l-78.47-45.3a4.88,4.88,0,0,1-2.43-4.22V762.36A4.87,4.87,0,0,1,386.66,758.15Z"/><path class="cls-19" d="M387.46,757.34l78.47,45.31a4.87,4.87,0,0,1,2.43,4.21v14.23a4.86,4.86,0,0,1-7.29,4.21L382.6,780a4.83,4.83,0,0,1-2.43-4.21V761.55A4.86,4.86,0,0,1,387.46,757.34Z"/><path class="cls-20" d="M388.26,756.53l78.47,45.31a4.83,4.83,0,0,1,2.43,4.21v14.23a4.86,4.86,0,0,1-7.29,4.21L383.4,779.18A4.86,4.86,0,0,1,381,775V760.74A4.86,4.86,0,0,1,388.26,756.53Z"/><path class="cls-21" d="M389.07,755.72,467.54,801a4.86,4.86,0,0,1,2.43,4.21v14.23a4.87,4.87,0,0,1-7.3,4.21l-78.46-45.31a4.86,4.86,0,0,1-2.44-4.21V759.93A4.87,4.87,0,0,1,389.07,755.72Z"/><path class="cls-22" d="M389.87,754.91l78.47,45.3a4.88,4.88,0,0,1,2.43,4.22v14.23a4.86,4.86,0,0,1-7.29,4.21L385,777.56a4.85,4.85,0,0,1-2.43-4.21V759.12A4.86,4.86,0,0,1,389.87,754.91Z"/><path class="cls-23" d="M390.68,754.1l78.46,45.3a4.86,4.86,0,0,1,2.43,4.21v14.23a4.86,4.86,0,0,1-7.29,4.22l-78.47-45.31a4.87,4.87,0,0,1-2.43-4.21V758.31A4.87,4.87,0,0,1,390.68,754.1Z"/><path class="cls-24" d="M391.48,753.29,470,798.59a4.88,4.88,0,0,1,2.43,4.21V817a4.86,4.86,0,0,1-7.29,4.22l-78.47-45.31a4.85,4.85,0,0,1-2.43-4.21V757.5A4.86,4.86,0,0,1,391.48,753.29Z"/><path class="cls-25" d="M392.28,752.48l78.47,45.3a4.86,4.86,0,0,1,2.43,4.21v14.23a4.85,4.85,0,0,1-7.29,4.21l-78.47-45.3a4.87,4.87,0,0,1-2.43-4.21V756.69A4.86,4.86,0,0,1,392.28,752.48Z"/><path class="cls-26" d="M393.09,751.67,471.56,797a4.88,4.88,0,0,1,2.43,4.21v14.23a4.86,4.86,0,0,1-7.3,4.21l-78.47-45.3a4.87,4.87,0,0,1-2.43-4.21V755.88A4.87,4.87,0,0,1,393.09,751.67Z"/><path class="cls-27" d="M393.89,750.86l78.47,45.3a4.87,4.87,0,0,1,2.43,4.21V814.6a4.86,4.86,0,0,1-7.29,4.21L389,773.51a4.85,4.85,0,0,1-2.43-4.21V755.07A4.86,4.86,0,0,1,393.89,750.86Z"/><path class="cls-28" d="M330.56,714.29l8.57,5a6.74,6.74,0,0,1,3.37,5.84V735a6.74,6.74,0,0,1-10.11,5.83l-8.57-4.95a6.74,6.74,0,0,1-3.37-5.83v-9.9A6.74,6.74,0,0,1,330.56,714.29Z"/><path class="cls-29" d="M315.79,727l8.58,5a6.75,6.75,0,0,1,3.36,5.84v9.9a6.73,6.73,0,0,1-10.1,5.83l-8.57-4.95a6.72,6.72,0,0,1-3.37-5.83v-9.9A6.74,6.74,0,0,1,315.79,727Z"/><path class="cls-30" d="M317.14,725.85l8.57,4.95a6.74,6.74,0,0,1,3.37,5.83v9.9A6.74,6.74,0,0,1,319,752.37l-8.57-5a6.74,6.74,0,0,1-3.37-5.84v-9.9A6.74,6.74,0,0,1,317.14,725.85Z"/><path class="cls-31" d="M318.48,724.69l8.57,4.95a6.74,6.74,0,0,1,3.37,5.84v9.9a6.74,6.74,0,0,1-10.11,5.83l-8.57-5a6.74,6.74,0,0,1-3.37-5.83v-9.9A6.74,6.74,0,0,1,318.48,724.69Z"/><path class="cls-32" d="M319.82,723.54l8.57,5a6.71,6.71,0,0,1,3.37,5.83v9.9a6.74,6.74,0,0,1-10.1,5.84l-8.58-4.95a6.76,6.76,0,0,1-3.37-5.84v-9.9A6.74,6.74,0,0,1,319.82,723.54Z"/><path class="cls-33" d="M321.16,722.38l8.58,5a6.74,6.74,0,0,1,3.36,5.84v9.9A6.73,6.73,0,0,1,323,748.9L314.42,744a6.74,6.74,0,0,1-3.36-5.83v-9.9A6.74,6.74,0,0,1,321.16,722.38Z"/><path class="cls-34" d="M322.5,721.23l8.58,4.95a6.73,6.73,0,0,1,3.37,5.83v9.9a6.74,6.74,0,0,1-10.11,5.83l-8.57-5A6.71,6.71,0,0,1,312.4,737v-9.9A6.73,6.73,0,0,1,322.5,721.23Z"/><path class="cls-35" d="M323.85,720.07l8.57,4.95a6.74,6.74,0,0,1,3.37,5.83v9.9a6.74,6.74,0,0,1-10.11,5.84l-8.57-5a6.73,6.73,0,0,1-3.37-5.84v-9.9A6.74,6.74,0,0,1,323.85,720.07Z"/><path class="cls-36" d="M325.19,718.91l8.57,5a6.74,6.74,0,0,1,3.37,5.84v9.9A6.73,6.73,0,0,1,327,745.43l-8.57-4.95a6.73,6.73,0,0,1-3.37-5.83v-9.9A6.74,6.74,0,0,1,325.19,718.91Z"/><path class="cls-37" d="M326.53,717.76l8.57,5a6.72,6.72,0,0,1,3.37,5.83v9.9a6.74,6.74,0,0,1-10.1,5.84l-8.58-4.95a6.75,6.75,0,0,1-3.36-5.84v-9.9A6.73,6.73,0,0,1,326.53,717.76Z"/><path class="cls-38" d="M327.87,716.6l8.58,4.95a6.76,6.76,0,0,1,3.37,5.84v9.9a6.74,6.74,0,0,1-10.11,5.83l-8.57-5a6.72,6.72,0,0,1-3.37-5.83v-9.9A6.74,6.74,0,0,1,327.87,716.6Z"/><path class="cls-39" d="M329.22,715.45l8.57,4.95a6.74,6.74,0,0,1,3.37,5.83v9.9A6.74,6.74,0,0,1,331.05,742l-8.57-5a6.74,6.74,0,0,1-3.37-5.84v-9.9A6.74,6.74,0,0,1,329.22,715.45Z"/><path class="cls-40" d="M330.56,714.29l8.57,5a6.74,6.74,0,0,1,3.37,5.84V735a6.74,6.74,0,0,1-10.11,5.83l-8.57-4.95a6.74,6.74,0,0,1-3.37-5.83v-9.9A6.74,6.74,0,0,1,330.56,714.29Z"/><path class="cls-41" d="M315.79,776.46l8.58,4.95a6.75,6.75,0,0,1,3.36,5.84v9.9a6.73,6.73,0,0,1-10.1,5.83l-8.57-5a6.71,6.71,0,0,1-3.37-5.83v-9.9A6.74,6.74,0,0,1,315.79,776.46Z"/><path class="cls-42" d="M317.14,775.44l8.57,4.95a6.75,6.75,0,0,1,3.37,5.84v9.9A6.74,6.74,0,0,1,319,802l-8.57-5a6.72,6.72,0,0,1-3.37-5.83v-9.9A6.74,6.74,0,0,1,317.14,775.44Z"/><path class="cls-43" d="M318.48,774.42l8.57,5a6.72,6.72,0,0,1,3.37,5.83v9.9a6.74,6.74,0,0,1-10.11,5.84l-8.57-5a6.76,6.76,0,0,1-3.37-5.84v-9.9A6.74,6.74,0,0,1,318.48,774.42Z"/><path class="cls-44" d="M319.82,773.4l8.57,5a6.71,6.71,0,0,1,3.37,5.83v9.9a6.73,6.73,0,0,1-10.1,5.83L313.08,795a6.73,6.73,0,0,1-3.37-5.83v-9.9A6.74,6.74,0,0,1,319.82,773.4Z"/><path class="cls-45" d="M321.16,772.37l8.58,5a6.75,6.75,0,0,1,3.36,5.84v9.9a6.73,6.73,0,0,1-10.1,5.83l-8.58-4.95a6.74,6.74,0,0,1-3.36-5.83v-9.9A6.74,6.74,0,0,1,321.16,772.37Z"/><path class="cls-46" d="M322.5,771.35l8.58,4.95a6.74,6.74,0,0,1,3.37,5.83V792a6.74,6.74,0,0,1-10.11,5.84l-8.57-5a6.74,6.74,0,0,1-3.37-5.84v-9.9A6.73,6.73,0,0,1,322.5,771.35Z"/><path class="cls-47" d="M323.85,770.33l8.57,4.95a6.73,6.73,0,0,1,3.37,5.83V791a6.74,6.74,0,0,1-10.11,5.84l-8.57-5a6.74,6.74,0,0,1-3.37-5.84v-9.9A6.73,6.73,0,0,1,323.85,770.33Z"/><path class="cls-48" d="M325.19,769.3l8.57,5a6.74,6.74,0,0,1,3.37,5.84V790A6.74,6.74,0,0,1,327,795.82l-8.57-5a6.74,6.74,0,0,1-3.37-5.83v-9.9A6.74,6.74,0,0,1,325.19,769.3Z"/><path class="cls-49" d="M326.53,768.28l8.57,5a6.72,6.72,0,0,1,3.37,5.83V789a6.74,6.74,0,0,1-10.1,5.84l-8.58-4.95a6.74,6.74,0,0,1-3.36-5.84v-9.9A6.73,6.73,0,0,1,326.53,768.28Z"/><path class="cls-50" d="M327.87,767.26l8.58,5a6.73,6.73,0,0,1,3.37,5.83v9.9a6.74,6.74,0,0,1-10.11,5.84l-8.57-4.95a6.74,6.74,0,0,1-3.37-5.84v-9.9A6.73,6.73,0,0,1,327.87,767.26Z"/><path class="cls-51" d="M329.22,766.23l8.57,4.95a6.76,6.76,0,0,1,3.37,5.84v9.9a6.74,6.74,0,0,1-10.11,5.83l-8.57-5a6.71,6.71,0,0,1-3.37-5.83v-9.9A6.74,6.74,0,0,1,329.22,766.23Z"/><path class="cls-52" d="M330.56,765.21l8.57,4.95A6.73,6.73,0,0,1,342.5,776v9.9a6.74,6.74,0,0,1-10.11,5.83l-8.57-5a6.74,6.74,0,0,1-3.37-5.83v-9.9A6.74,6.74,0,0,1,330.56,765.21Z"/><path class="cls-53" d="M330.56,765.21l8.57,4.95A6.73,6.73,0,0,1,342.5,776v9.9a6.74,6.74,0,0,1-10.11,5.83l-8.57-5a6.74,6.74,0,0,1-3.37-5.83v-9.9A6.74,6.74,0,0,1,330.56,765.21Z"/><path class="cls-54" d="M878.67,489.28V299.76h-312l-46.56-26.88a16.31,16.31,0,0,0-16.3,0l-46.56,26.88h-312V489.29a16.14,16.14,0,0,0,8.15,14.11L503.85,705.69a16.31,16.31,0,0,0,16.3,0L870.52,503.4A16.14,16.14,0,0,0,878.67,489.28Z"/><path class="cls-55" d="M153.48,285.64,503.85,83.36a16.31,16.31,0,0,1,16.3,0L870.52,285.64a16.3,16.3,0,0,1,0,28.24L520.15,516.17a16.31,16.31,0,0,1-16.3,0L153.48,313.88A16.3,16.3,0,0,1,153.48,285.64Z"/><path class="cls-3" d="M833.72,396l-42,25.11a16.18,16.18,0,0,0-8.09,14v47.37a16.18,16.18,0,0,0,24.28,14l42-25.11a16.19,16.19,0,0,0,8.1-14V410.05A16.18,16.18,0,0,0,833.72,396Z"/><path class="cls-4" d="M829.22,413.58l-27.34,16.35a10.53,10.53,0,0,0-5.27,9.12v30.84A10.54,10.54,0,0,0,812.42,479l27.33-16.35a10.53,10.53,0,0,0,5.27-9.12V422.7A10.53,10.53,0,0,0,829.22,413.58Z"/><path class="cls-5" d="M859.91,435.16l-27.34,16.35a10.52,10.52,0,0,0-5.26,9.12v30.84a10.53,10.53,0,0,0,15.8,9.12l27.34-16.35a10.52,10.52,0,0,0,5.26-9.12V444.28A10.53,10.53,0,0,0,859.91,435.16Z"/><path class="cls-6" d="M857.12,433.19l-27.34,16.35a10.55,10.55,0,0,0-5.26,9.13v30.84a10.53,10.53,0,0,0,15.8,9.12l27.34-16.35a10.52,10.52,0,0,0,5.26-9.12V442.32A10.54,10.54,0,0,0,857.12,433.19Z"/><path class="cls-7" d="M854.33,431.23,827,447.58a10.53,10.53,0,0,0-5.26,9.13v30.84a10.53,10.53,0,0,0,15.8,9.12l27.34-16.35a10.53,10.53,0,0,0,5.26-9.13V440.36A10.54,10.54,0,0,0,854.33,431.23Z"/><path class="cls-8" d="M851.54,429.27,824.2,445.62a10.53,10.53,0,0,0-5.26,9.13v30.83a10.53,10.53,0,0,0,15.8,9.13l27.34-16.35a10.53,10.53,0,0,0,5.26-9.13V438.4A10.53,10.53,0,0,0,851.54,429.27Z"/><path class="cls-9" d="M848.75,427.31l-27.34,16.35a10.52,10.52,0,0,0-5.26,9.12v30.84a10.54,10.54,0,0,0,15.8,9.13l27.34-16.35a10.54,10.54,0,0,0,5.26-9.13V436.43A10.53,10.53,0,0,0,848.75,427.31Z"/><path class="cls-10" d="M846,425.35,818.62,441.7a10.52,10.52,0,0,0-5.26,9.12v30.84a10.54,10.54,0,0,0,15.8,9.13l27.34-16.36a10.52,10.52,0,0,0,5.26-9.12V434.47A10.53,10.53,0,0,0,846,425.35Z"/><path class="cls-11" d="M843.17,423.38l-27.34,16.36a10.52,10.52,0,0,0-5.26,9.12V479.7a10.53,10.53,0,0,0,15.8,9.12l27.34-16.35a10.52,10.52,0,0,0,5.26-9.12V432.51A10.54,10.54,0,0,0,843.17,423.38Z"/><path class="cls-12" d="M840.38,421.42,813,437.77a10.55,10.55,0,0,0-5.27,9.13v30.84a10.54,10.54,0,0,0,15.81,9.12l27.33-16.35a10.51,10.51,0,0,0,5.27-9.12V430.55A10.54,10.54,0,0,0,840.38,421.42Z"/><path class="cls-13" d="M837.59,419.46l-27.34,16.35a10.54,10.54,0,0,0-5.27,9.13v30.83a10.54,10.54,0,0,0,15.81,9.13l27.33-16.35a10.54,10.54,0,0,0,5.27-9.13V428.59A10.53,10.53,0,0,0,837.59,419.46Z"/><path class="cls-14" d="M834.8,417.5l-27.34,16.35a10.54,10.54,0,0,0-5.27,9.13v30.83A10.55,10.55,0,0,0,818,482.94l27.33-16.35a10.54,10.54,0,0,0,5.27-9.13V426.62A10.53,10.53,0,0,0,834.8,417.5Z"/><path class="cls-15" d="M832,415.54l-27.34,16.35A10.53,10.53,0,0,0,799.4,441v30.84A10.55,10.55,0,0,0,815.21,481l27.33-16.35a10.56,10.56,0,0,0,5.27-9.13V424.66A10.53,10.53,0,0,0,832,415.54Z"/><path class="cls-16" d="M829.22,413.58l-27.34,16.35a10.53,10.53,0,0,0-5.27,9.12v30.84A10.54,10.54,0,0,0,812.42,479l27.33-16.35a10.53,10.53,0,0,0,5.27-9.12V422.7A10.53,10.53,0,0,0,829.22,413.58Z"/><path class="cls-4" d="M393.89,515.91l78.47,45.3a4.87,4.87,0,0,1,2.43,4.21v14.23a4.86,4.86,0,0,1-7.29,4.21L389,538.56a4.86,4.86,0,0,1-2.43-4.21V520.12A4.85,4.85,0,0,1,393.89,515.91Z"/><path class="cls-4" d="M393.89,566.82l78.47,45.31a4.87,4.87,0,0,1,2.43,4.21v14.23a4.86,4.86,0,0,1-7.29,4.21L389,589.48a4.86,4.86,0,0,1-2.43-4.22V571A4.86,4.86,0,0,1,393.89,566.82Z"/><path class="cls-5" d="M385.05,575.74l78.47,45.31a4.86,4.86,0,0,1,2.43,4.21v14.23a4.87,4.87,0,0,1-7.3,4.21l-78.46-45.31a4.86,4.86,0,0,1-2.44-4.21V580A4.87,4.87,0,0,1,385.05,575.74Z"/><path class="cls-17" d="M385.85,574.93l78.47,45.3a4.86,4.86,0,0,1,2.43,4.22v14.23a4.86,4.86,0,0,1-7.29,4.21L381,597.58a4.87,4.87,0,0,1-2.43-4.21V579.14A4.86,4.86,0,0,1,385.85,574.93Z"/><path class="cls-18" d="M386.66,574.12l78.46,45.3a4.87,4.87,0,0,1,2.44,4.21v14.23a4.87,4.87,0,0,1-7.3,4.22l-78.47-45.31a4.87,4.87,0,0,1-2.43-4.21V578.33A4.87,4.87,0,0,1,386.66,574.12Z"/><path class="cls-19" d="M387.46,573.31l78.47,45.3a4.88,4.88,0,0,1,2.43,4.21v14.23a4.86,4.86,0,0,1-7.29,4.22L382.6,596a4.85,4.85,0,0,1-2.43-4.21V577.52A4.86,4.86,0,0,1,387.46,573.31Z"/><path class="cls-20" d="M388.26,572.5l78.47,45.3a4.86,4.86,0,0,1,2.43,4.21v14.23a4.85,4.85,0,0,1-7.29,4.21l-78.47-45.3a4.87,4.87,0,0,1-2.43-4.21V576.71A4.86,4.86,0,0,1,388.26,572.5Z"/><path class="cls-21" d="M389.07,571.69,467.54,617A4.88,4.88,0,0,1,470,621.2v14.23a4.86,4.86,0,0,1-7.3,4.21l-78.46-45.3a4.86,4.86,0,0,1-2.44-4.21V575.9A4.87,4.87,0,0,1,389.07,571.69Z"/><path class="cls-22" d="M389.87,570.88l78.47,45.3a4.87,4.87,0,0,1,2.43,4.21v14.23a4.86,4.86,0,0,1-7.29,4.21L385,593.53a4.85,4.85,0,0,1-2.43-4.21V575.09A4.86,4.86,0,0,1,389.87,570.88Z"/><path class="cls-23" d="M390.68,570.07l78.46,45.3a4.85,4.85,0,0,1,2.43,4.21v14.23a4.86,4.86,0,0,1-7.29,4.21l-78.47-45.3a4.88,4.88,0,0,1-2.43-4.21V574.28A4.86,4.86,0,0,1,390.68,570.07Z"/><path class="cls-24" d="M391.48,569.26,470,614.56a4.87,4.87,0,0,1,2.43,4.21V633a4.86,4.86,0,0,1-7.29,4.21l-78.47-45.3a4.86,4.86,0,0,1-2.43-4.21V573.47A4.85,4.85,0,0,1,391.48,569.26Z"/><path class="cls-25" d="M392.28,568.45l78.47,45.3a4.85,4.85,0,0,1,2.43,4.21v14.23a4.86,4.86,0,0,1-7.29,4.21l-78.47-45.3a4.88,4.88,0,0,1-2.43-4.21V572.66A4.85,4.85,0,0,1,392.28,568.45Z"/><path class="cls-26" d="M393.09,567.63l78.47,45.31a4.87,4.87,0,0,1,2.43,4.21v14.23a4.87,4.87,0,0,1-7.3,4.21l-78.47-45.3a4.88,4.88,0,0,1-2.43-4.21V571.85A4.87,4.87,0,0,1,393.09,567.63Z"/><path class="cls-27" d="M393.89,566.82l78.47,45.31a4.87,4.87,0,0,1,2.43,4.21v14.23a4.86,4.86,0,0,1-7.29,4.21L389,589.48a4.86,4.86,0,0,1-2.43-4.22V571A4.86,4.86,0,0,1,393.89,566.82Z"/><path class="cls-5" d="M385.05,524.82l78.47,45.31a4.87,4.87,0,0,1,2.43,4.21v14.23a4.87,4.87,0,0,1-7.3,4.21l-78.46-45.3a4.87,4.87,0,0,1-2.44-4.22V529A4.87,4.87,0,0,1,385.05,524.82Z"/><path class="cls-17" d="M385.85,524l78.47,45.31a4.83,4.83,0,0,1,2.43,4.21v14.23a4.86,4.86,0,0,1-7.29,4.21L381,546.66a4.86,4.86,0,0,1-2.43-4.21V528.22A4.86,4.86,0,0,1,385.85,524Z"/><path class="cls-18" d="M386.66,523.2l78.46,45.31a4.84,4.84,0,0,1,2.44,4.21V587a4.87,4.87,0,0,1-7.3,4.21l-78.47-45.31a4.87,4.87,0,0,1-2.43-4.21V527.41A4.87,4.87,0,0,1,386.66,523.2Z"/><path class="cls-19" d="M387.46,522.39l78.47,45.3a4.88,4.88,0,0,1,2.43,4.22v14.23a4.86,4.86,0,0,1-7.29,4.21L382.6,545a4.85,4.85,0,0,1-2.43-4.21V526.6A4.86,4.86,0,0,1,387.46,522.39Z"/><path class="cls-20" d="M388.26,521.58l78.47,45.3a4.86,4.86,0,0,1,2.43,4.22v14.22a4.86,4.86,0,0,1-7.29,4.22L383.4,544.23A4.87,4.87,0,0,1,381,540V525.79A4.86,4.86,0,0,1,388.26,521.58Z"/><path class="cls-21" d="M389.07,520.77l78.47,45.3a4.88,4.88,0,0,1,2.43,4.21v14.23a4.87,4.87,0,0,1-7.3,4.22l-78.46-45.31a4.86,4.86,0,0,1-2.44-4.21V525A4.87,4.87,0,0,1,389.07,520.77Z"/><path class="cls-22" d="M389.87,520l78.47,45.3a4.88,4.88,0,0,1,2.43,4.21V583.7a4.85,4.85,0,0,1-7.29,4.21L385,542.61a4.85,4.85,0,0,1-2.43-4.21V524.17A4.86,4.86,0,0,1,389.87,520Z"/><path class="cls-23" d="M390.68,519.15l78.46,45.3a4.86,4.86,0,0,1,2.43,4.21v14.23a4.85,4.85,0,0,1-7.29,4.21l-78.47-45.3a4.87,4.87,0,0,1-2.43-4.21V523.36A4.87,4.87,0,0,1,390.68,519.15Z"/><path class="cls-24" d="M391.48,518.34,470,563.64a4.87,4.87,0,0,1,2.43,4.21v14.23a4.86,4.86,0,0,1-7.29,4.21L386.62,541a4.85,4.85,0,0,1-2.43-4.21V522.55A4.86,4.86,0,0,1,391.48,518.34Z"/><path class="cls-25" d="M392.28,517.53l78.47,45.3a4.85,4.85,0,0,1,2.43,4.21v14.23a4.86,4.86,0,0,1-7.29,4.21l-78.47-45.3A4.88,4.88,0,0,1,385,536V521.74A4.86,4.86,0,0,1,392.28,517.53Z"/><path class="cls-26" d="M393.09,516.72,471.56,562a4.87,4.87,0,0,1,2.43,4.21v14.23a4.87,4.87,0,0,1-7.3,4.21l-78.47-45.3a4.88,4.88,0,0,1-2.43-4.21V520.93A4.86,4.86,0,0,1,393.09,516.72Z"/><path class="cls-27" d="M393.89,515.91l78.47,45.3a4.87,4.87,0,0,1,2.43,4.21v14.23a4.86,4.86,0,0,1-7.29,4.21L389,538.56a4.86,4.86,0,0,1-2.43-4.21V520.12A4.85,4.85,0,0,1,393.89,515.91Z"/><path class="cls-28" d="M330.56,479.34l8.57,5a6.72,6.72,0,0,1,3.37,5.83V500a6.74,6.74,0,0,1-10.11,5.84l-8.57-4.95a6.75,6.75,0,0,1-3.37-5.84v-9.89A6.74,6.74,0,0,1,330.56,479.34Z"/><path class="cls-29" d="M315.79,492.05l8.58,4.95a6.74,6.74,0,0,1,3.36,5.84v9.9a6.73,6.73,0,0,1-10.1,5.83l-8.57-5a6.72,6.72,0,0,1-3.37-5.83v-9.9A6.74,6.74,0,0,1,315.79,492.05Z"/><path class="cls-30" d="M317.14,490.9l8.57,5a6.73,6.73,0,0,1,3.37,5.83v9.9A6.74,6.74,0,0,1,319,517.41l-8.57-4.95a6.71,6.71,0,0,1-3.37-5.83v-9.9A6.73,6.73,0,0,1,317.14,490.9Z"/><path class="cls-31" d="M318.48,489.74l8.57,4.95a6.72,6.72,0,0,1,3.37,5.83v9.9a6.74,6.74,0,0,1-10.11,5.84l-8.57-4.95a6.75,6.75,0,0,1-3.37-5.84v-9.9A6.74,6.74,0,0,1,318.48,489.74Z"/><path class="cls-32" d="M319.82,488.58l8.57,4.95a6.74,6.74,0,0,1,3.37,5.84v9.9a6.73,6.73,0,0,1-10.1,5.83l-8.58-5a6.73,6.73,0,0,1-3.37-5.83v-9.9A6.74,6.74,0,0,1,319.82,488.58Z"/><path class="cls-33" d="M321.16,487.43l8.58,4.95a6.74,6.74,0,0,1,3.36,5.83v9.9A6.74,6.74,0,0,1,323,514l-8.58-5a6.75,6.75,0,0,1-3.36-5.84v-9.9A6.73,6.73,0,0,1,321.16,487.43Z"/><path class="cls-34" d="M322.5,486.27l8.58,5a6.76,6.76,0,0,1,3.37,5.84V507a6.74,6.74,0,0,1-10.11,5.83l-8.57-4.95A6.72,6.72,0,0,1,312.4,502v-9.9A6.74,6.74,0,0,1,322.5,486.27Z"/><path class="cls-35" d="M323.85,485.12l8.57,4.95a6.74,6.74,0,0,1,3.37,5.83v9.9a6.74,6.74,0,0,1-10.11,5.84l-8.57-4.95a6.74,6.74,0,0,1-3.37-5.84V491A6.74,6.74,0,0,1,323.85,485.12Z"/><path class="cls-36" d="M325.19,484l8.57,5a6.74,6.74,0,0,1,3.37,5.84v9.9A6.74,6.74,0,0,1,327,510.48l-8.57-5a6.74,6.74,0,0,1-3.37-5.83v-9.9A6.74,6.74,0,0,1,325.19,484Z"/><path class="cls-37" d="M326.53,482.81l8.57,4.95a6.71,6.71,0,0,1,3.37,5.83v9.9a6.74,6.74,0,0,1-10.1,5.84l-8.58-4.95a6.75,6.75,0,0,1-3.36-5.84v-9.9A6.73,6.73,0,0,1,326.53,482.81Z"/><path class="cls-38" d="M327.87,481.65l8.58,5a6.75,6.75,0,0,1,3.37,5.84v9.9a6.74,6.74,0,0,1-10.11,5.83l-8.57-4.95a6.72,6.72,0,0,1-3.37-5.83v-9.9A6.74,6.74,0,0,1,327.87,481.65Z"/><path class="cls-39" d="M329.22,480.5l8.57,4.95a6.73,6.73,0,0,1,3.37,5.83v9.9A6.74,6.74,0,0,1,331.05,507l-8.57-4.94a6.74,6.74,0,0,1-3.37-5.84v-9.9A6.73,6.73,0,0,1,329.22,480.5Z"/><path class="cls-40" d="M330.56,479.34l8.57,5a6.72,6.72,0,0,1,3.37,5.83V500a6.74,6.74,0,0,1-10.11,5.84l-8.57-4.95a6.75,6.75,0,0,1-3.37-5.84v-9.89A6.74,6.74,0,0,1,330.56,479.34Z"/><path class="cls-41" d="M315.79,541.51l8.58,5a6.75,6.75,0,0,1,3.36,5.84v9.9a6.73,6.73,0,0,1-10.1,5.83l-8.57-4.95a6.72,6.72,0,0,1-3.37-5.83v-9.9A6.74,6.74,0,0,1,315.79,541.51Z"/><path class="cls-42" d="M317.14,540.49l8.57,5a6.74,6.74,0,0,1,3.37,5.83v9.9A6.74,6.74,0,0,1,319,567l-8.57-5a6.73,6.73,0,0,1-3.37-5.84v-9.9A6.74,6.74,0,0,1,317.14,540.49Z"/><path class="cls-43" d="M318.48,539.47l8.57,4.95a6.71,6.71,0,0,1,3.37,5.83v9.9A6.74,6.74,0,0,1,320.31,566l-8.57-5a6.76,6.76,0,0,1-3.37-5.84v-9.9A6.74,6.74,0,0,1,318.48,539.47Z"/><path class="cls-44" d="M319.82,538.44l8.57,4.95a6.74,6.74,0,0,1,3.37,5.84v9.9a6.73,6.73,0,0,1-10.1,5.83l-8.58-5a6.74,6.74,0,0,1-3.37-5.83v-9.9A6.74,6.74,0,0,1,319.82,538.44Z"/><path class="cls-45" d="M321.16,537.42l8.58,5a6.74,6.74,0,0,1,3.36,5.83v9.9a6.74,6.74,0,0,1-10.1,5.84l-8.58-5a6.74,6.74,0,0,1-3.36-5.84v-9.89A6.74,6.74,0,0,1,321.16,537.42Z"/><path class="cls-46" d="M322.5,536.4l8.58,5a6.73,6.73,0,0,1,3.37,5.83v9.9a6.74,6.74,0,0,1-10.11,5.84L315.77,558a6.74,6.74,0,0,1-3.37-5.84v-9.9A6.73,6.73,0,0,1,322.5,536.4Z"/><path class="cls-47" d="M323.85,535.37l8.57,5a6.76,6.76,0,0,1,3.37,5.84v9.9a6.74,6.74,0,0,1-10.11,5.83l-8.57-4.95a6.71,6.71,0,0,1-3.37-5.83v-9.9A6.74,6.74,0,0,1,323.85,535.37Z"/><path class="cls-48" d="M325.19,534.35l8.57,4.95a6.73,6.73,0,0,1,3.37,5.84V555A6.74,6.74,0,0,1,327,560.87l-8.57-5a6.74,6.74,0,0,1-3.37-5.83v-9.9A6.74,6.74,0,0,1,325.19,534.35Z"/><path class="cls-49" d="M326.53,533.33l8.57,4.95a6.72,6.72,0,0,1,3.37,5.83V554a6.74,6.74,0,0,1-10.1,5.84l-8.58-5a6.75,6.75,0,0,1-3.36-5.84v-9.9A6.73,6.73,0,0,1,326.53,533.33Z"/><path class="cls-50" d="M327.87,532.3l8.58,5a6.76,6.76,0,0,1,3.37,5.84V553a6.74,6.74,0,0,1-10.11,5.83l-8.57-5a6.71,6.71,0,0,1-3.37-5.83v-9.9A6.74,6.74,0,0,1,327.87,532.3Z"/><path class="cls-51" d="M329.22,531.28l8.57,5a6.76,6.76,0,0,1,3.37,5.84V552a6.74,6.74,0,0,1-10.11,5.83l-8.57-4.95a6.72,6.72,0,0,1-3.37-5.83v-9.9A6.74,6.74,0,0,1,329.22,531.28Z"/><path class="cls-52" d="M330.56,530.26l8.57,5A6.72,6.72,0,0,1,342.5,541v9.9a6.74,6.74,0,0,1-10.11,5.84l-8.57-4.95a6.76,6.76,0,0,1-3.37-5.84v-9.9A6.74,6.74,0,0,1,330.56,530.26Z"/><path class="cls-53" d="M330.56,530.26l8.57,5A6.72,6.72,0,0,1,342.5,541v9.9a6.74,6.74,0,0,1-10.11,5.84l-8.57-4.95a6.76,6.76,0,0,1-3.37-5.84v-9.9A6.74,6.74,0,0,1,330.56,530.26Z"/></g></svg>